#!OML:ASF F:\VICON\USERDATA\INSTALL\rory3\rory3.ASF
:FULLY-SPECIFIED
:DEGREES
341
root -0.290457 17.8478 32.6399 -2.47651 -3.62778 -7.46084
lowerback 10.2446 1.50028 6.33381
upperback 0.315291 2.86444 2.3218
thorax -5.23407 1.28123 -1.53998
lowerneck -15.4671 -2.70317 -1.69266
upperneck 20.6502 -3.55643 0.980122
head 9.08413 -1.69021 0.178803
rclavicle -1.10885e-014 -2.45251e-014
rhumerus -24.9778 -11.5804 -81.609
rradius 28.4182
rwrist 3.06694
rhand -19.7929 24.8486
rfingers 7.12502
rthumb 6.53976 -5.03041
lclavicle -1.10885e-014 -2.45251e-014
lhumerus -33.2627 5.79728 82.2043
lradius 25.1494
lwrist 2.20059
lhand -28.1416 21.8049
lfingers 7.12502
lthumb -1.52269 51.7793
rfemur -2.52391 5.146 35.0594
rtibia 29.5561
rfoot -19.1489 -5.38072
rtoes 11.2043
lfemur -28.2849 3.04161 -12.0601
ltibia 55.3196
lfoot -6.9745 1.10028
ltoes -4.27578
342
root -0.282274 17.8336 32.8094 -2.4431 -3.85487 -7.52503
lowerback 10.4114 1.55737 6.48737
upperback 0.177394 2.97884 2.27934
thorax -5.45601 1.32337 -1.6943
lowerneck -14.9925 -2.74756 -1.80365
upperneck 20.356 -3.63632 1.16606
head 8.90287 -1.72047 0.259
rclavicle 6.50806e-015 1.56916e-014
rhumerus -24.7501 -10.9608 -81.7255
rradius 28.86
rwrist 2.58315
rhand -19.885 25.0181
rfingers 7.12502
rthumb 6.45082 -4.86365
lclavicle 6.50806e-015 1.56916e-014
lhumerus -33.9487 6.10504 82.0331
lradius 24.7845
lwrist 2.23756
lhand -28.8645 21.866
lfingers 7.12502
lthumb -2.22081 51.8342
rfemur -1.77528 5.04424 35.1019
rtibia 29.2819
rfoot -19.4589 -5.28977
rtoes 11.2917
lfemur -28.5054 2.86944 -11.9729
ltibia 52.8548
lfoot -6.62434 1.80806
ltoes -4.17733
343
root -0.276786 17.8207 32.975 -2.39618 -4.191 -7.85727
lowerback 10.482 1.63976 6.84517
upperback 0.256143 3.1361 2.35193
thorax -5.38674 1.3956 -1.84028
lowerneck -15.1445 -2.83149 -1.97022
upperneck 20.3014 -3.75816 1.3862
head 8.92215 -1.76585 0.344498
rclavicle 3.15708e-014 4.11236e-014
rhumerus -24.0641 -10.5011 -81.834
rradius 29.244
rwrist 2.19693
rhand -19.3713 24.7637
rfingers 7.12502
rthumb 6.9467 -5.10236
lclavicle 3.15708e-014 4.11236e-014
lhumerus -34.0624 6.52472 81.9418
lradius 24.327
lwrist 2.90218
lhand -30.1825 20.8677
lfingers 7.12502
lthumb -3.49365 50.8188
rfemur -1.0044 5.33411 35.5329
rtibia 29.0347
rfoot -19.7223 -5.55739
rtoes 11.3866
lfemur -28.6706 2.61499 -11.4849
ltibia 50.1632
lfoot -6.26496 2.56819
ltoes -6.28025
344
root -0.272887 17.8063 33.1325 -2.12603 -4.47959 -8.02516
lowerback 10.4393 1.74268 6.97593
upperback 0.285497 3.28454 2.39474
thorax -5.31553 1.4686 -1.88622
lowerneck -15.451 -2.8649 -2.08645
upperneck 20.2772 -3.78811 1.47071
head 8.97483 -1.77746 0.384515
rclavicle -3.20012e-014 -1.1455e-014
rhumerus -23.2613 -10.1772 -81.8862
rradius 29.4778
rwrist 1.91264
rhand -19.1333 24.7371
rfingers 7.12502
rthumb 7.17649 -5.1212
lclavicle -3.20012e-014 -1.1455e-014
lhumerus -34.028 7.63056 81.5182
lradius 23.9768
lwrist 2.28928
lhand -29.369 21.6517
lfingers 7.12502
lthumb -2.7081 51.6143
rfemur -0.527103 5.64406 35.7708
rtibia 28.715
rfoot -19.798 -5.84153
rtoes 10.7749
lfemur -28.9181 2.08047 -11.1196
ltibia 47.3211
lfoot -5.82391 3.64964
ltoes -8.36577
345
root -0.262958 17.7895 33.3031 -1.74915 -4.63534 -8.03409
lowerback 10.2387 1.84652 7.05577
upperback 0.146334 3.42018 2.36171
thorax -5.33265 1.52969 -1.97786
lowerneck -15.2877 -2.89522 -2.10066
upperneck 20.1423 -3.82597 1.4663
head 8.89953 -1.79856 0.383754
rclavicle 1.83732e-014 1.80459e-015
rhumerus -22.8895 -9.56737 -81.9096
rradius 29.9926
rwrist 1.33726
rhand -19.1205 24.337
rfingers 7.12502
rthumb 7.18887 -5.5209
lclavicle 1.83732e-014 1.80459e-015
lhumerus -34.3694 8.46653 81.1628
lradius 23.7872
lwrist 1.77301
lhand -28.8324 22.9858
lfingers 7.12502
lthumb -2.18987 52.9543
rfemur -0.137196 5.63659 35.7226
rtibia 28.3217
rfoot -19.8731 -5.87415
rtoes 9.98946
lfemur -29.072 1.44979 -10.9673
ltibia 44.3811
lfoot -4.46093 4.4417
ltoes -5.69807
346
root -0.2567 17.7797 33.4724 -1.56601 -4.72248 -8.27248
lowerback 10.1652 1.87126 7.33559
upperback 0.121032 3.4824 2.40144
thorax -5.29984 1.55408 -2.09686
lowerneck -15.2459 -2.89146 -2.04179
upperneck 20.0076 -3.83052 1.45339
head 8.84427 -1.79852 0.370457
rclavicle 2.61902e-014 1.15233e-015
rhumerus -22.3791 -9.25391 -81.9455
rradius 30.418
rwrist 1.19377
rhand -19.2593 24.0106
rfingers 7.12502
rthumb 7.05488 -5.85182
lclavicle 2.61902e-014 1.15233e-015
lhumerus -34.6484 8.81565 81.1548
lradius 23.7424
lwrist 2.81066
lhand -30.1263 22.4228
lfingers 7.12502
lthumb -3.43946 52.3748
rfemur 0.52552 5.6782 35.9897
rtibia 27.903
rfoot -20.0466 -5.96893
rtoes 10.0423
lfemur -29.0721 1.0581 -10.5768
ltibia 41.3787
lfoot -2.89815 4.36548
ltoes -2.73385
347
root -0.253697 17.7779 33.6438 -1.30178 -4.86977 -8.44547
lowerback 10.0054 1.92074 7.47029
upperback 0.17168 3.54538 2.42494
thorax -5.14454 1.58875 -2.14658
lowerneck -15.7634 -2.87383 -1.96527
upperneck 20.1552 -3.82476 1.48047
head 8.98836 -1.78234 0.359558
rclavicle -1.11205e-014 6.23997e-015
rhumerus -21.5341 -8.95147 -82.0127
rradius 30.4989
rwrist 0.886722
rhand -19.356 24.3423
rfingers 7.12502
rthumb 6.96147 -5.52319
lclavicle -1.11205e-014 6.23997e-015
lhumerus -34.6806 9.3268 81.0084
lradius 23.3525
lwrist 3.35511
lhand -31.2759 21.157
lfingers 7.12502
lthumb -4.54955 51.0882
rfemur 1.16626 5.72666 36.1733
rtibia 27.4112
rfoot -19.6853 -5.84453
rtoes 12.0418
lfemur -29.1319 0.605145 -10.207
ltibia 38.2919
lfoot -2.2539 3.91018
ltoes -4.97977
348
root -0.249415 17.7702 33.8247 -1.1109 -5.15086 -8.47253
lowerback 9.8278 2.03444 7.42573
upperback 0.166793 3.67407 2.42997
thorax -5.04133 1.65715 -2.12492
lowerneck -15.912 -2.90792 -1.97009
upperneck 20.3112 -3.88955 1.55814
head 9.07239 -1.80251 0.375718
rclavicle 6.16702e-014 2.73888e-014
rhumerus -20.9422 -8.65891 -82.0255
rradius 30.5377
rwrist 0.653242
rhand -19.5221 24.5361
rfingers 7.12502
rthumb 6.80118 -5.33469
lclavicle 6.16702e-014 2.73888e-014
lhumerus -34.945 9.93696 80.6827
lradius 22.6148
lwrist 3.23472
lhand -32.076 19.663
lfingers 7.12502
lthumb -5.32216 49.5762
rfemur 1.88862 5.86404 36.1823
rtibia 26.996
rfoot -19.8897 -5.77723
rtoes 11.631
lfemur -28.969 -0.0845158 -9.85198
ltibia 35.1453
lfoot -1.72199 3.9088
ltoes -6.59379
